<?xml version="1.0" encoding="UTF-8" standalone="no"?>
<!-- Created with Inkscape (http://www.inkscape.org/) -->

<svg
   version="1.1"
   id="svg1"
   width="700"
   height="700"
   viewBox="0 0 700 700"
   xmlns="http://www.w3.org/2000/svg"
   xmlns:svg="http://www.w3.org/2000/svg">
  <defs
     id="defs1" />
  <g
     id="g1"
     transform="translate(200.03934,13.000402)">
    <g
       id="g34"
       transform="matrix(10.5,0,0,10.5,1900.375,123.50384)">
      <rect
         style="fill:#e3e5e9;fill-opacity:1"
         id="rect33"
         width="57.049896"
         height="39.399242"
         x="-194.57901"
         y="3.8949251"
         ry="0" />
      <g
         id="g33">
        <g
           id="g26"
           transform="translate(-200.03946,-13.000404)">
          <path
             style="fill:#fdfdfd"
             d="M 0,33.333332 V 0 H 33.333332 66.666664 V 33.333332 66.666664 H 33.333332 0 Z m 38.133332,19.023183 c 8.682177,-2.069879 16.56115,-10.747468 16.667131,-18.356516 0.0026,-0.183334 1.435137,-3.978333 3.183519,-8.433333 l 3.178876,-8.1 h -27.79698 c -26.4104365,0 -27.7935741,0.01164 -27.7287006,0.233333 0.037554,0.128334 1.4191494,3.773334 3.070213,8.1 2.5382456,6.651557 3.0446626,8.09713 3.2785626,9.358698 1.709998,9.223068 9.030962,16.17911 18.480713,17.559518 1.348146,0.196936 6.30421,-0.03688 7.666666,-0.3617 z M 61.199998,15.199686 v -1.333647 l -27.811595,0.03365 -27.8115938,0.03365 0.0058,1.233333 c 0.00319,0.678333 0.00841,1.263333 0.011595,1.3 0.00319,0.03667 12.5157968,0.06667 27.8057968,0.06667 H 61.2 Z"
             id="path33" />
          <path
             style="fill:#e3e5e9"
             d="m 30.168653,51.80609 c -1.493359,-0.244776 -3.358707,-0.748526 -3.57587,-0.965689 -0.347497,-0.347497 -0.196178,-11.355424 0.171011,-12.440402 1.711283,-5.056544 7.942311,-6.4921 11.55525,-2.662194 1.830384,1.940304 1.960255,2.591722 1.915772,9.609313 l -0.03482,5.492768 -0.533333,0.189751 c -2.364658,0.841307 -6.860211,1.208814 -9.498012,0.776453 z m 5.0898,-7.318514 c 1.592732,-0.729177 2.52925,-2.213799 2.536441,-4.020911 0.02311,-5.807282 -8.579761,-6.046305 -8.837949,-0.245555 -0.1533,3.444203 3.175162,5.697754 6.301508,4.266466 z m -2.297248,-2.361974 c -1.541199,-0.330714 -1.819688,-2.464454 -0.419651,-3.215301 1.204413,-0.645934 2.523381,0.185617 2.524613,1.591655 8.96e-4,1.022852 -1.066806,1.846416 -2.104962,1.623646 z m -9.815145,7.270404 c -4.454569,-2.544444 -7.671129,-6.333125 -9.448722,-11.129341 -0.519225,-1.400946 -1.10003,-3.760271 -0.993818,-4.037054 0.162804,-0.42426 9.425512,-2.229612 11.43946,-2.229612 h 0.390352 v 8.999999 c 0,7.11164 -0.03497,8.999792 -0.166666,8.999009 -0.09167,-5.46e-4 -0.64094,-0.271896 -1.220606,-0.603001 z m 19.073815,0.302383 c -0.192502,-0.76699 -0.08679,-17.573331 0.111013,-17.649236 0.948952,-0.364147 11.535777,1.854848 11.535777,2.417895 0,4.768691 -5.119914,11.980677 -10.684799,15.050765 l -0.884799,0.488134 z M 12.479358,32.820534 c -0.112297,-0.1817 -5.4168655,-14.595459 -5.3797564,-14.618062 0.031802,-0.01937 51.8671234,0.299297 52.1806254,0.32079 0.08079,0.0055 -1.081236,3.238229 -2.582286,7.183755 l -2.72918,7.173684 -2.951048,-0.56992 c -1.623077,-0.313456 -4.242679,-0.751614 -5.82134,-0.973684 L 42.326082,30.933332 H 33.35667 24.387259 l -4.226963,0.738471 c -2.32483,0.406158 -4.882457,0.856158 -5.683615,1 -1.625158,0.291783 -1.896428,0.311983 -1.997323,0.148731 z"
             id="path32" />
          <path
             style="fill:#cdd0d4"
             d="m 55.366665,18.434057 c 0.641666,-0.02444 1.691666,-0.02444 2.333333,0 0.641666,0.02444 0.116666,0.04444 -1.166667,0.04444 -1.283333,0 -1.808333,-0.02 -1.166666,-0.04444 z M 32.833332,18.300724 c 0.641667,-0.02444 1.691667,-0.02444 2.333333,0 0.641667,0.02444 0.116667,0.04444 -1.166666,0.04444 -1.283334,0 -1.808334,-0.02 -1.166667,-0.04444 z M 10.3,18.16739 c 0.641666,-0.02444 1.691666,-0.02444 2.333333,0 0.641666,0.02444 0.116667,0.04444 -1.166667,0.04444 -1.283333,0 -1.808333,-0.02 -1.166666,-0.04444 z"
             id="path31" />
          <path
             style="fill:#bec1c5"
             d="m 28.699999,30.966723 c 2.548333,-0.02027 6.718333,-0.02027 9.266666,0 2.548333,0.02026 0.463334,0.03685 -4.633333,0.03685 -5.096666,0 -7.181666,-0.01658 -4.633333,-0.03685 z M 58.969202,18.440934 c 0.129729,-0.03381 0.309729,-0.03158 0.4,0.0049 0.09027,0.03652 -0.01587,0.06418 -0.235871,0.06147 -0.22,-0.0027 -0.293858,-0.0326 -0.164129,-0.06641 z m -21.930645,-0.13979 c 0.461207,-0.02611 1.181207,-0.0259 1.6,4.79e-4 0.418793,0.02638 0.04144,0.04774 -0.838558,0.04747 -0.88,-2.63e-4 -1.222649,-0.02184 -0.761442,-0.04795 z M 14.505224,18.167811 c 0.461208,-0.02611 1.181208,-0.0259 1.6,4.79e-4 0.418793,0.02637 0.04144,0.04774 -0.838558,0.04747 -0.88,-2.64e-4 -1.222649,-0.02184 -0.761442,-0.04795 z"
             id="path30" />
          <path
             style="fill:#9da0a4"
             d="m 47.041665,31.64225 c 0.09625,-0.03852 0.21125,-0.03378 0.255555,0.01053 0.04431,0.04431 -0.03444,0.07582 -0.175,0.07003 -0.155325,-0.0064 -0.186919,-0.03799 -0.08055,-0.08056 z m -0.933333,-0.133333 c 0.09625,-0.03852 0.21125,-0.03378 0.255555,0.01053 0.04431,0.04431 -0.03444,0.07582 -0.175,0.07003 -0.155326,-0.0064 -0.18692,-0.03799 -0.08056,-0.08056 z m -2.933334,-0.4 c 0.09625,-0.03852 0.21125,-0.03378 0.255556,0.01053 0.04431,0.04431 -0.03444,0.07582 -0.175,0.07003 -0.155326,-0.0064 -0.18692,-0.03799 -0.08056,-0.08055 z M 41.166665,18.300304 c 1.045,-0.02253 2.755,-0.02253 3.8,0 1.045,0.02253 0.19,0.04096 -1.9,0.04096 -2.09,0 -2.945,-0.01843 -1.9,-0.04096 z M 18.633333,18.16697 c 1.045,-0.02253 2.755,-0.02253 3.799999,0 1.045,0.02253 0.19,0.04096 -1.899999,0.04096 -2.09,0 -2.945,-0.01843 -1.9,-0.04096 z"
             id="path29" />
          <path
             style="fill:#3781f4"
             d="m 32.333332,44.814639 c -3.354655,-0.906796 -4.586013,-5.036379 -2.223177,-7.455828 2.847539,-2.915766 7.69543,-0.945558 7.678878,3.120735 -0.01148,2.820284 -2.815885,5.04866 -5.455701,4.335093 z m 1.625122,-2.743773 c 1.786345,-0.511957 1.255236,-3.404201 -0.625122,-3.404201 -1.980749,0 -2.355355,2.896655 -0.44766,3.46155 0.37735,0.111738 0.506972,0.104809 1.072782,-0.05735 z"
             id="path28" />
          <path
             style="fill:#5c6067"
             d="m 47.906545,18.300628 c 0.645267,-0.02449 1.665267,-0.02437 2.266666,2.79e-4 0.6014,0.02465 0.07345,0.04469 -1.173213,0.04453 -1.246666,-1.53e-4 -1.73872,-0.02032 -1.093453,-0.04481 z M 25.373212,18.167295 c 0.645268,-0.02449 1.665268,-0.02437 2.266667,2.78e-4 0.601399,0.02465 0.07345,0.04469 -1.173213,0.04454 -1.246667,-1.54e-4 -1.738721,-0.02032 -1.093454,-0.04481 z"
             id="path27" />
          <path
             style="fill:#1e2836"
             d="m 30.466666,52.718215 c -9.449751,-1.380408 -16.770715,-8.33645 -18.480713,-17.559518 -0.2339,-1.261568 -0.740317,-2.707141 -3.2785626,-9.358698 -1.6510636,-4.326666 -3.0326594,-7.971666 -3.070213,-8.1 -0.064874,-0.221694 1.3182641,-0.233333 27.7287006,-0.233333 h 27.79698 l -3.178876,8.1 c -1.748382,4.455 -3.180966,8.249999 -3.183519,8.433333 C 54.65454,44.476784 41.790243,54.37235 30.466666,52.718215 Z m 7.266666,-1.16354 c 0.77,-0.184408 1.64,-0.420675 1.933333,-0.525038 l 0.533333,-0.189751 0.03482,-5.492768 c 0.04448,-7.017591 -0.08539,-7.669009 -1.915772,-9.609313 -3.612939,-3.829906 -9.843967,-2.39435 -11.55525,2.662194 -0.367189,1.084978 -0.518508,12.092905 -0.171011,12.440402 0.217163,0.217163 2.082511,0.720913 3.57587,0.965689 1.823021,0.29881 5.822182,0.165897 7.564679,-0.251415 z m -13.2,-10.554677 V 31.999999 H 24.14298 c -2.013948,0 -11.276656,1.805352 -11.43946,2.229612 -0.526777,1.372759 2.286998,7.556978 4.789627,10.526819 1.714242,2.034271 5.913146,5.236863 6.873519,5.242577 0.131697,7.83e-4 0.166666,-1.887369 0.166666,-8.999009 z m 20.333333,7.4965 c 4.603237,-3.067946 9,-9.921743 9,-14.02945 0,-0.563047 -10.586825,-2.782042 -11.535777,-2.417895 -0.197804,0.07591 -0.303515,16.882246 -0.111013,17.649236 l 0.07719,0.307558 0.884799,-0.488134 c 0.486639,-0.268474 1.244799,-0.728066 1.684799,-1.021315 z m -26.333332,-16.429833 5.666666,-0.999927 9.133333,5.7e-5 c 10.40351,6.5e-5 10.406282,2.72e-4 17.29524,1.290736 1.849049,0.34637 3.386026,0.602622 3.415505,0.569449 0.02948,-0.03317 1.285059,-3.300314 2.790178,-7.260314 l 2.73658,-7.2 -5.218752,-0.08188 C 37.341738,18.117896 6.8900808,18.094987 6.9881841,18.349152 c 0.053252,0.137966 1.2704248,3.430847 2.7048275,7.317514 1.4344024,3.886666 2.6366954,7.141666 2.6717614,7.233333 0.09276,0.24248 0.0035,0.254535 6.16856,-0.833334 z M 5.5999998,15.199999 V 13.866666 H 33.399999 61.199998 v 1.333333 1.333334 H 33.399999 5.5999998 Z"
             id="path26" />
        </g>
      </g>
    </g>
  </g>
</svg>
