<?xml version="1.0" encoding="UTF-8" standalone="no"?>
<!-- Created with Inkscape (http://www.inkscape.org/) -->

<svg
   version="1.1"
   id="svg1"
   width="700"
   height="699.99994"
   viewBox="0 0 700 699.99994"
   xmlns="http://www.w3.org/2000/svg"
   xmlns:svg="http://www.w3.org/2000/svg">
  <defs
     id="defs1" />
  <g
     id="g58"
     transform="matrix(10.454405,0,0,10.455446,3.3450789,0.89882665)">
    <g
       id="g1">
      <rect
         style="fill:#ffffff"
         id="rect57"
         width="66.95742"
         height="66.950752"
         x="-0.31996608"
         y="-0.085969679" />
      <g
         id="g46"
         transform="translate(0.22017622,-0.56856115)">
        <path
           style="fill:#f5f7fd"
           d="m 31.846739,30.981129 c 0,-0.03667 0.03,-0.06667 0.06667,-0.06667 0.03667,0 0.06667,0.03 0.06667,0.06667 0,0.03667 -0.03,0.06667 -0.06667,0.06667 -0.03667,0 -0.06667,-0.03 -0.06667,-0.06667 z m -7.733333,-3.2 c 0,-0.03667 0.03,-0.06667 0.06667,-0.06667 0.03667,0 0.06667,0.03 0.06667,0.06667 0,0.03667 -0.03,0.06667 -0.06667,0.06667 -0.03667,0 -0.06667,-0.03 -0.06667,-0.06667 z m 3.733333,-2.933333 c 0,-0.03667 0.03,-0.06667 0.06667,-0.06667 0.03667,0 0.06667,0.03 0.06667,0.06667 0,0.03667 -0.03,0.06667 -0.06667,0.06667 -0.03667,0 -0.06667,-0.03 -0.06667,-0.06667 z m 4.4,-3.466667 c 0,-0.03667 0.03,-0.06667 0.06667,-0.06667 0.03667,0 0.06667,0.03 0.06667,0.06667 0,0.03667 -0.03,0.06667 -0.06667,0.06667 -0.03667,0 -0.06667,-0.03 -0.06667,-0.06667 z m 0.666667,-0.533333 c 0,-0.03667 0.03,-0.06667 0.06667,-0.06667 0.03667,0 0.06667,0.03 0.06667,0.06667 0,0.03667 -0.03,0.06667 -0.06667,0.06667 -0.03667,0 -0.06667,-0.03 -0.06667,-0.06667 z m 6.133333,-0.533333 c 0,-0.03667 0.03,-0.06667 0.06667,-0.06667 0.03667,0 0.06667,0.03 0.06667,0.06667 0,0.03667 -0.03,0.06667 -0.06667,0.06667 -0.03667,0 -0.06667,-0.03 -0.06667,-0.06667 z m -1.412732,-2.353935 -0.09514,-0.153934 0.153935,0.09514 c 0.08466,0.05232 0.153934,0.121595 0.153934,0.153934 0,0.111219 -0.11774,0.05856 -0.212732,-0.09514 z M 36.913406,17.38113 c 0,-0.03667 0.03,-0.06667 0.06667,-0.06667 0.03667,0 0.06667,0.03 0.06667,0.06667 0,0.03667 -0.03,0.06667 -0.06667,0.06667 -0.03667,0 -0.06667,-0.03 -0.06667,-0.06667 z m 2.666666,-0.4 c 0,-0.03667 0.03,-0.06667 0.06667,-0.06667 0.03667,0 0.06667,0.03 0.06667,0.06667 0,0.03667 -0.03,0.06667 -0.06667,0.06667 -0.03667,0 -0.06667,-0.03 -0.06667,-0.06667 z M 27.446739,16.714463 c 0,-0.03667 0.03,-0.06667 0.06667,-0.06667 0.03667,0 0.06667,0.03 0.06667,0.06667 0,0.03667 -0.03,0.06667 -0.06667,0.06667 -0.03667,0 -0.06667,-0.03 -0.06667,-0.06667 z m 0.266667,-0.266667 c 0,-0.03667 0.03,-0.06667 0.06667,-0.06667 0.03667,0 0.06667,0.03 0.06667,0.06667 0,0.03667 -0.03,0.06667 -0.06667,0.06667 -0.03667,0 -0.06667,-0.03 -0.06667,-0.06667 z m 2.533333,-1.6 c 0,-0.03667 0.03,-0.06667 0.06667,-0.06667 0.03667,0 0.06667,0.03 0.06667,0.06667 0,0.03667 -0.03,0.06667 -0.06667,0.06667 -0.03667,0 -0.06667,-0.03 -0.06667,-0.06667 z m 0.4,-0.133333 c 0,-0.03667 0.03,-0.06667 0.06667,-0.06667 0.03667,0 0.06667,0.03 0.06667,0.06667 0,0.03667 -0.03,0.06667 -0.06667,0.06667 -0.03667,0 -0.06667,-0.03 -0.06667,-0.06667 z m 4.266667,-0.266667 c 0,-0.03667 0.03,-0.06667 0.06667,-0.06667 0.03667,0 0.06667,0.03 0.06667,0.06667 0,0.03667 -0.03,0.06667 -0.06667,0.06667 -0.03667,0 -0.06667,-0.03 -0.06667,-0.06667 z"
           id="path57" />
        <path
           style="fill:#f6f6f6"
           d="m 16.380073,62.714461 c 0,-0.03667 0.03,-0.06667 0.06667,-0.06667 0.03667,0 0.06667,0.03 0.06667,0.06667 0,0.03667 -0.03,0.06667 -0.06667,0.06667 -0.03667,0 -0.06667,-0.03 -0.06667,-0.06667 z m -0.4,-57.9999977 c 0,-0.036667 0.03,-0.066667 0.06667,-0.066667 0.03667,0 0.06667,0.03 0.06667,0.066667 0,0.036667 -0.03,0.066667 -0.06667,0.066667 -0.03667,0 -0.06667,-0.03 -0.06667,-0.066667 z"
           id="path56" />
        <path
           style="fill:#e3eafa"
           d="m 34.913406,38.047795 c 0,-0.03667 0.03,-0.06667 0.06667,-0.06667 0.03667,0 0.06667,0.03 0.06667,0.06667 0,0.03667 -0.03,0.06667 -0.06667,0.06667 -0.03667,0 -0.06667,-0.03 -0.06667,-0.06667 z m -3.2,-3.066666 c 0,-0.03667 0.03,-0.06667 0.06667,-0.06667 0.03667,0 0.06667,0.03 0.06667,0.06667 0,0.03667 -0.03,0.06667 -0.06667,0.06667 -0.03667,0 -0.06667,-0.03 -0.06667,-0.06667 z m -0.266667,-0.266667 c 0,-0.03667 0.03,-0.06667 0.06667,-0.06667 0.03667,0 0.06667,0.03 0.06667,0.06667 0,0.03667 -0.03,0.06667 -0.06667,0.06667 -0.03667,0 -0.06667,-0.03 -0.06667,-0.06667 z m -0.533333,-0.933333 c 0,-0.03667 0.03,-0.06667 0.06667,-0.06667 0.03667,0 0.06667,0.03 0.06667,0.06667 0,0.03667 -0.03,0.06667 -0.06667,0.06667 -0.03667,0 -0.06667,-0.03 -0.06667,-0.06667 z M 22.24674,29.247796 c 0,-0.03667 0.03,-0.06667 0.06667,-0.06667 0.03667,0 0.06667,0.03 0.06667,0.06667 0,0.03667 -0.03,0.06667 -0.06667,0.06667 -0.03667,0 -0.06667,-0.03 -0.06667,-0.06667 z m 1.2,-0.933334 c 0,-0.03667 0.03,-0.06667 0.06667,-0.06667 0.03667,0 0.06667,0.03 0.06667,0.06667 0,0.03667 -0.03,0.06667 -0.06667,0.06667 -0.03667,0 -0.06667,-0.03 -0.06667,-0.06667 z m 5.066666,-3.999999 c 0,-0.03667 0.03,-0.06667 0.06667,-0.06667 0.03667,0 0.06667,0.03 0.06667,0.06667 0,0.03667 -0.03,0.06667 -0.06667,0.06667 -0.03667,0 -0.06667,-0.03 -0.06667,-0.06667 z m 8.8,-0.8 c 0,-0.03667 0.03,-0.06667 0.06667,-0.06667 0.03667,0 0.06667,0.03 0.06667,0.06667 0,0.03667 -0.03,0.06667 -0.06667,0.06667 -0.03667,0 -0.06667,-0.03 -0.06667,-0.06667 z m -6.933333,-0.666667 c 0,-0.03667 0.03,-0.06667 0.06667,-0.06667 0.03667,0 0.06667,0.03 0.06667,0.06667 0,0.03667 -0.03,0.06667 -0.06667,0.06667 -0.03667,0 -0.06667,-0.03 -0.06667,-0.06667 z m 5.066666,-0.8 c 0,-0.03667 0.03,-0.06667 0.06667,-0.06667 0.03667,0 0.06667,0.03 0.06667,0.06667 0,0.03667 -0.03,0.06667 -0.06667,0.06667 -0.03667,0 -0.06667,-0.03 -0.06667,-0.06667 z m 3.733333,-1.2 c 0,-0.03667 0.03,-0.06667 0.06667,-0.06667 0.03667,0 0.06667,0.03 0.06667,0.06667 0,0.03667 -0.03,0.06667 -0.06667,0.06667 -0.03667,0 -0.06667,-0.03 -0.06667,-0.06667 z m -0.266666,-0.933333 c 0,-0.03667 0.03,-0.06667 0.06667,-0.06667 0.03667,0 0.06667,0.03 0.06667,0.06667 0,0.03667 -0.03,0.06667 -0.06667,0.06667 -0.03667,0 -0.06667,-0.03 -0.06667,-0.06667 z m -10.8,-0.533334 c 0,-0.03667 0.03,-0.06667 0.06667,-0.06667 0.03667,0 0.06667,0.03 0.06667,0.06667 0,0.03667 -0.03,0.06667 -0.06667,0.06667 -0.03667,0 -0.06667,-0.03 -0.06667,-0.06667 z m 3.6,-2.799999 c 0,-0.03667 0.03,-0.06667 0.06667,-0.06667 0.03667,0 0.06667,0.03 0.06667,0.06667 0,0.03667 -0.03,0.06667 -0.06667,0.06667 -0.03667,0 -0.06667,-0.03 -0.06667,-0.06667 z m -3.2,-0.8 c 0,-0.03667 0.03,-0.06667 0.06667,-0.06667 0.03667,0 0.06667,0.03 0.06667,0.06667 0,0.03667 -0.03,0.06667 -0.06667,0.06667 -0.03667,0 -0.06667,-0.03 -0.06667,-0.06667 z"
           id="path55" />
        <path
           style="fill:#e4e6ea"
           d="m 29.342977,59.347795 0.0371,-1.833334 h 4.133333 4.133333 l 0.0371,1.833334 0.0371,1.833333 H 33.513406 29.305881 Z M 17.713407,31.247796 V 6.3811299 H 33.380073 49.046739 V 31.247796 56.114461 H 33.380073 17.713407 Z m 26.799998,13.874332 v -0.592333 l -0.566666,-0.041 -0.566667,-0.041 v -7.333333 -7.333333 l 0.896466,-0.06667 0.896466,-0.06667 -1.849376,-1.44103 -1.849375,-1.44103 -0.06073,-3.15897 -0.06073,-3.15897 -0.232408,-0.733333 c -0.127831,-0.403327 -0.421691,-1.093317 -0.65303,-1.533306 l -0.420616,-0.79998 -0.8,-0.800555 -0.8,-0.800556 -0.947082,-0.496444 -0.947081,-0.496443 -0.852919,-0.20105 -0.852918,-0.201051 -1.333333,3.45e-4 -1.333333,3.44e-4 -0.90097,0.190924 -0.900969,0.190924 -0.921962,0.484477 -0.921962,0.484477 -0.680517,0.662862 c -0.855997,0.833789 -1.521973,1.831129 -1.905489,2.85359 l -0.298116,0.794782 -0.04384,3.263652 -0.04384,3.263653 -0.144794,0.174465 c -0.07964,0.09596 -0.929186,0.787313 -1.887887,1.536348 l -1.743094,1.361882 0.863391,0.06667 0.86339,0.06667 0.03446,7.366666 0.03446,7.366667 h -0.534462 -0.534463 v 0.6 0.6 h 11 10.999999 z M 31.713406,40.174825 c 0,-0.113467 0.124796,-1.231679 0.277325,-2.484915 l 0.277324,-2.278611 -0.497304,-0.481752 c -0.273518,-0.264963 -0.578314,-0.674824 -0.677325,-0.910802 l -0.18002,-0.429051 0.0022,-0.637616 0.0022,-0.637616 0.299402,-0.528616 0.299403,-0.528616 0.625583,-0.386768 0.625584,-0.386769 h 0.647976 0.647976 l 0.550453,0.280821 0.550454,0.28082 0.328767,0.434564 c 0.180822,0.23901 0.396005,0.687316 0.478185,0.996235 l 0.149418,0.561672 -0.08938,0.371662 c -0.154521,0.64253 -0.562455,1.334789 -0.97838,1.6603 l -0.400899,0.31375 0.262554,2.132139 c 0.144404,1.172677 0.263145,2.297139 0.263869,2.498806 l 0.0013,0.366667 h -1.733334 -1.733333 z m -4.113294,-17.332424 0.04802,-2.261272 0.423966,-0.896443 0.423965,-0.896444 0.628003,-0.671386 0.628002,-0.671385 0.814001,-0.398793 0.814,-0.398793 1.077531,-0.143425 1.077531,-0.143424 0.976657,0.135343 0.976657,0.135344 0.812479,0.407741 c 0.918142,0.460769 1.481356,0.937602 2.074346,1.756201 l 0.407663,0.562763 0.265234,0.858728 0.265235,0.858729 v 1.919289 c 0,1.055609 -0.03582,1.919289 -0.0796,1.919289 -0.04378,0 -1.168781,-0.859464 -2.5,-1.909919 -1.331218,-1.050455 -2.612888,-2.049884 -2.848156,-2.220953 l -0.427758,-0.311034 -0.172241,0.136559 c -0.237248,0.188096 -5.329018,4.181022 -5.552901,4.354539 l -0.180658,0.140018 z"
           id="path54" />
        <path
           style="fill:#d1dbf9"
           d="m 34.513406,30.714462 c 0,-0.03667 0.03,-0.06667 0.06667,-0.06667 0.03667,0 0.06667,0.03 0.06667,0.06667 0,0.03667 -0.03,0.06667 -0.06667,0.06667 -0.03667,0 -0.06667,-0.03 -0.06667,-0.06667 z m 3.466666,-6.666666 c 0,-0.03667 0.03,-0.06667 0.06667,-0.06667 0.03667,0 0.06667,0.03 0.06667,0.06667 0,0.03667 -0.03,0.06667 -0.06667,0.06667 -0.03667,0 -0.06667,-0.03 -0.06667,-0.06667 z m -3.199999,-2.533333 c 0,-0.03667 0.03,-0.06667 0.06667,-0.06667 0.03667,0 0.06667,0.03 0.06667,0.06667 0,0.03667 -0.03,0.06667 -0.06667,0.06667 -0.03667,0 -0.06667,-0.03 -0.06667,-0.06667 z m -6.266667,-2.8 c 0,-0.03667 0.03,-0.06667 0.06667,-0.06667 0.03667,0 0.06667,0.03 0.06667,0.06667 0,0.03667 -0.03,0.06667 -0.06667,0.06667 -0.03667,0 -0.06667,-0.03 -0.06667,-0.06667 z m -0.666667,-2.4 c 0,-0.03667 0.03,-0.06667 0.06667,-0.06667 0.03667,0 0.06667,0.03 0.06667,0.06667 0,0.03667 -0.03,0.06667 -0.06667,0.06667 -0.03667,0 -0.06667,-0.03 -0.06667,-0.06667 z M 38.780072,16.18113 c 0,-0.03667 0.03,-0.06667 0.06667,-0.06667 0.03667,0 0.06667,0.03 0.06667,0.06667 0,0.03667 -0.03,0.06667 -0.06667,0.06667 -0.03667,0 -0.06667,-0.03 -0.06667,-0.06667 z"
           id="path53" />
        <path
           style="fill:#bec0c1"
           d="m 48.646739,3.3811301 c 0,-0.036667 0.03,-0.066667 0.06667,-0.066667 0.03667,0 0.06667,0.03 0.06667,0.066667 0,0.036667 -0.03,0.066667 -0.06667,0.066667 -0.03667,0 -0.06667,-0.03 -0.06667,-0.066667 z"
           id="path52" />
        <path
           style="fill:#8cabf6"
           d="m 31.846739,38.314462 c 0,-0.03667 0.03,-0.06667 0.06667,-0.06667 0.03667,0 0.06667,0.03 0.06667,0.06667 0,0.03667 -0.03,0.06667 -0.06667,0.06667 -0.03667,0 -0.06667,-0.03 -0.06667,-0.06667 z M 23.44674,29.781129 c 0,-0.03667 0.03,-0.06667 0.06667,-0.06667 0.03667,0 0.06667,0.03 0.06667,0.06667 0,0.03667 -0.03,0.06667 -0.06667,0.06667 -0.03667,0 -0.06667,-0.03 -0.06667,-0.06667 z m 8.133333,-7.866666 c 0,-0.03667 0.03,-0.06667 0.06667,-0.06667 0.03667,0 0.06667,0.03 0.06667,0.06667 0,0.03667 -0.03,0.06667 -0.06667,0.06667 -0.03667,0 -0.06667,-0.03 -0.06667,-0.06667 z M 25.84674,19.381129 c 0,-0.03667 0.03,-0.06667 0.06667,-0.06667 0.03667,0 0.06667,0.03 0.06667,0.06667 0,0.03667 -0.03,0.06667 -0.06667,0.06667 -0.03667,0 -0.06667,-0.03 -0.06667,-0.06667 z"
           id="path51" />
        <path
           style="fill:#6c99f5"
           d="m 34.780073,30.847796 c 0,-0.03667 0.03,-0.06667 0.06667,-0.06667 0.03667,0 0.06667,0.03 0.06667,0.06667 0,0.03667 -0.03,0.06667 -0.06667,0.06667 -0.03667,0 -0.06667,-0.03 -0.06667,-0.06667 z m -2.533334,-0.133334 c 0,-0.03667 0.03,-0.06667 0.06667,-0.06667 0.03667,0 0.06667,0.03 0.06667,0.06667 0,0.03667 -0.03,0.06667 -0.06667,0.06667 -0.03667,0 -0.06667,-0.03 -0.06667,-0.06667 z M 27.980073,19.647796 c 0,-0.03667 0.03,-0.06667 0.06667,-0.06667 0.03667,0 0.06667,0.03 0.06667,0.06667 0,0.03667 -0.03,0.06667 -0.06667,0.06667 -0.03667,0 -0.06667,-0.03 -0.06667,-0.06667 z m 11.999999,-2.133333 c 0,-0.03667 0.03,-0.06667 0.06667,-0.06667 0.03667,0 0.06667,0.03 0.06667,0.06667 0,0.03667 -0.03,0.06667 -0.06667,0.06667 -0.03667,0 -0.06667,-0.03 -0.06667,-0.06667 z"
           id="path50" />
        <path
           style="fill:#3781f5"
           d="m 22.513406,45.114462 v -0.6 h 0.533334 0.533333 v -7.393908 -7.393908 l -0.875752,-0.03942 -0.875752,-0.03943 1.842419,-1.466667 1.842418,-1.466667 0.07325,-3.333333 0.07325,-3.333333 0.294003,-0.789237 c 0.779982,-2.093822 2.472097,-3.720777 4.686422,-4.505957 l 0.739747,-0.262307 1.469216,-0.07182 1.469216,-0.07182 0.977133,0.164815 0.977133,0.164815 1.034267,0.517667 1.034267,0.517667 0.72295,0.701424 c 1.271982,1.234108 1.967174,2.55459 2.244446,4.263209 l 0.136023,0.838215 10e-4,2.614907 10e-4,2.614908 1.863133,1.451759 1.863132,1.451759 -0.896466,0.06667 -0.896466,0.06667 v 7.333333 7.333333 l 0.566667,0.041 0.566666,0.041 v 0.592333 0.592334 h -10.999999 -11 z m 12.666667,-5.108043 c 0,-0.206091 -0.11853,-1.330719 -0.263399,-2.499175 l -0.263399,-2.124464 0.400428,-0.313382 c 0.414085,-0.32407 0.823443,-1.017427 0.976347,-1.653702 l 0.08782,-0.365432 -0.151635,-0.602196 -0.151635,-0.602196 -0.483929,-0.543916 -0.483929,-0.543917 -0.686292,-0.177362 -0.686292,-0.177362 -0.577702,0.129801 -0.577701,0.129801 -0.437237,0.333497 -0.437237,0.333497 -0.265436,0.520297 -0.265436,0.520297 4.98e-4,0.705312 4.99e-4,0.705312 0.276511,0.466667 c 0.15208,0.256666 0.456966,0.619291 0.677523,0.805832 l 0.401012,0.339166 -0.278038,2.260834 c -0.152921,1.243459 -0.278031,2.365834 -0.278022,2.494167 l 1.7e-5,0.233334 h 1.733333 1.733334 z m -4.490328,-17.332729 2.758383,-2.174107 0.165972,0.09814 c 0.09128,0.05398 1.353705,1.032326 2.805378,2.174106 1.451672,1.14178 2.701838,2.097686 2.778145,2.124235 l 0.13874,0.04827 -0.04481,-2.251782 -0.04481,-2.251783 -0.439583,-0.892211 -0.439583,-0.892211 -0.626701,-0.626702 -0.626702,-0.626702 -0.828734,-0.387811 -0.828734,-0.387812 -0.94863,-0.131459 -0.948629,-0.13146 -1.043845,0.126196 -1.043845,0.126196 -0.741582,0.339508 -0.741582,0.339507 -0.66655,0.623479 c -0.812769,0.76025 -1.274383,1.522694 -1.54052,2.54446 l -0.201446,0.773406 v 1.911945 1.911946 l 0.175645,-0.106626 c 0.0966,-0.05864 1.416917,-1.084973 2.934027,-2.280731 z"
           id="path49" />
        <path
           style="fill:#888d90"
           d="m 15.84674,5.1144633 c 0,-0.036667 0.03,-0.066667 0.06667,-0.066667 0.03667,0 0.06667,0.03 0.06667,0.066667 0,0.036667 -0.03,0.066667 -0.06667,0.066667 -0.03667,0 -0.06667,-0.03 -0.06667,-0.066667 z"
           id="path48" />
        <path
           style="fill:#6a6c70"
           d="m 50.513405,4.4477967 c 0,-0.036667 0.03,-0.066667 0.06667,-0.066667 0.03667,0 0.06667,0.03 0.06667,0.066667 0,0.036667 -0.03,0.066667 -0.06667,0.066667 -0.03667,0 -0.06667,-0.03 -0.06667,-0.066667 z"
           id="path47" />
        <path
           style="fill:#1e2836"
           d="M 17.24674,63.200998 C 16.627679,62.909236 16.190245,62.470376 15.988955,61.939115 L 15.84674,61.563768 V 33.400701 5.2376339 l 0.3,-0.5938424 0.3,-0.5938424 0.438053,-0.2909691 0.438053,-0.2909691 0.828614,-0.084389 c 0.455737,-0.046414 7.638613,-0.065962 15.961946,-0.04344 l 15.133333,0.040949 0.497614,0.3094001 c 0.273688,0.17017 0.633688,0.50017 0.8,0.7333333 l 0.302386,0.4239332 0.03818,28.1999995 c 0.021,15.509999 0.0036,28.393232 -0.03864,28.629407 l -0.07682,0.429408 -0.34391,0.408714 c -0.18915,0.224793 -0.531763,0.511559 -0.761361,0.637258 l -0.417451,0.228545 -15.733333,0.03561 -15.733333,0.03561 z m 20.437095,-3.853203 -0.0371,-1.833334 h -4.133333 -4.133333 l -0.0371,1.833334 -0.0371,1.833333 h 4.207525 4.207525 z M 49.046739,31.247796 V 6.3811299 H 33.380073 17.713407 V 31.247796 56.114461 h 15.666666 15.666666 z"
           id="path46" />
      </g>
    </g>
  </g>
</svg>
